<?xml version="1.0" encoding="UTF-8" standalone="no"?>
<!-- Created with Inkscape (http://www.inkscape.org/) -->
<svg xmlns:dc="http://purl.org/dc/elements/1.1/" xmlns:cc="http://creativecommons.org/ns#" xmlns:rdf="http://www.w3.org/1999/02/22-rdf-syntax-ns#" xmlns:svg="http://www.w3.org/2000/svg" xmlns="http://www.w3.org/2000/svg" xmlns:xlink="http://www.w3.org/1999/xlink" xmlns:sodipodi="http://sodipodi.sourceforge.net/DTD/sodipodi-0.dtd" xmlns:inkscape="http://www.inkscape.org/namespaces/inkscape" width="425.60001" height="425.60001" id="svg2" version="1.1" inkscape:version="0.48.3.1 r9886" sodipodi:docname="lifesaver.svg" inkscape:export-filename="/home/easy/Dokumentumok/Munka/PierreDesign/Design/Webdesign/ikonok/lifesaver.png" inkscape:export-xdpi="38.063911" inkscape:export-ydpi="38.063911">
  <title id="title4311">Lifesaver</title>
  <defs id="defs4">
    <linearGradient id="linearGradient4239">
      <stop style="stop-color:#787878;stop-opacity:1;" offset="0" id="stop4241"/>
      <stop style="stop-color:#f0f0f0;stop-opacity:1;" offset="1" id="stop4243"/>
    </linearGradient>
    <linearGradient id="linearGradient4204">
      <stop id="stop4206" offset="0" style="stop-color:#8c8c8c;stop-opacity:1;"/>
      <stop style="stop-color:#9cbdcc;stop-opacity:1;" offset="0.42857143" id="stop4208"/>
      <stop id="stop4214" offset="0.52380949" style="stop-color:#8c8c8c;stop-opacity:1;"/>
      <stop id="stop4210" offset="0.71428567" style="stop-color:#ffffff;stop-opacity:1;"/>
      <stop style="stop-color:#8c8c8c;stop-opacity:1;" offset="0.89473689" id="stop4216"/>
      <stop id="stop4212" offset="1" style="stop-color:#9cbdcc;stop-opacity:1;"/>
    </linearGradient>
    <linearGradient id="linearGradient4186">
      <stop id="stop4188" offset="0" style="stop-color:#a00000;stop-opacity:1;"/>
      <stop style="stop-color:#b40016;stop-opacity:1;" offset="0.42857149" id="stop4190"/>
      <stop id="stop4200" offset="0.52380949" style="stop-color:#780000;stop-opacity:1;"/>
      <stop style="stop-color:#ff0101;stop-opacity:1;" offset="0.61904764" id="stop4192"/>
      <stop id="stop4194" offset="0.71428573" style="stop-color:#ff4f01;stop-opacity:1;"/>
      <stop style="stop-color:#ff0101;stop-opacity:1;" offset="0.80952382" id="stop4196"/>
      <stop id="stop4202" offset="0.90476191" style="stop-color:#780000;stop-opacity:1;"/>
      <stop id="stop4198" offset="1" style="stop-color:#b40016;stop-opacity:1;"/>
    </linearGradient>
    <linearGradient id="linearGradient3984">
      <stop id="stop3986" offset="0" style="stop-color:#ff0101;stop-opacity:1;"/>
      <stop style="stop-color:#a00000;stop-opacity:1;" offset="0.52383858" id="stop3988"/>
      <stop style="stop-color:#ff0101;stop-opacity:1;" offset="0.61907089" id="stop3990"/>
      <stop id="stop3992" offset="0.71430314" style="stop-color:#ff3d01;stop-opacity:1;"/>
      <stop style="stop-color:#ff0101;stop-opacity:1;" offset="0.85715157" id="stop3994"/>
      <stop id="stop3996" offset="1" style="stop-color:#a00000;stop-opacity:1;"/>
    </linearGradient>
    <linearGradient id="linearGradient3910">
      <stop style="stop-color:#ff0101;stop-opacity:1;" offset="0" id="stop3912"/>
      <stop id="stop3966" offset="0.25" style="stop-color:#a00000;stop-opacity:1;"/>
      <stop id="stop3918" offset="0.5" style="stop-color:#ff0101;stop-opacity:1;"/>
      <stop style="stop-color:#ff3d01;stop-opacity:1;" offset="0.75" id="stop3920"/>
      <stop id="stop3968" offset="0.875" style="stop-color:#ff0101;stop-opacity:1;"/>
      <stop style="stop-color:#a00000;stop-opacity:1;" offset="1" id="stop3914"/>
    </linearGradient>
    <radialGradient inkscape:collect="always" xlink:href="#linearGradient4204" id="radialGradient3841" cx="229.99998" cy="324.26694" fx="229.99998" fy="324.26694" r="190" gradientUnits="userSpaceOnUse" gradientTransform="matrix(1.1052632,-1.526984e-8,1.5269841e-8,1.1052632,-24.210532,-36.038132)"/>
    <radialGradient inkscape:collect="always" xlink:href="#linearGradient3910" id="radialGradient3916" cx="230" cy="342.375" fx="230" fy="342.375" r="193.125" gradientUnits="userSpaceOnUse"/>
    <radialGradient inkscape:collect="always" xlink:href="#linearGradient3984" id="radialGradient3954" cx="230" cy="342.375" fx="230" fy="342.375" r="191.875" gradientUnits="userSpaceOnUse" gradientTransform="matrix(1,0,0,1.0945293,0,-32.364472)"/>
    <radialGradient inkscape:collect="always" xlink:href="#linearGradient4186" id="radialGradient4019" gradientUnits="userSpaceOnUse" gradientTransform="matrix(1.0944625,-5.5070984e-8,5.5070983e-8,1.0944625,-21.727012,-32.34219)" cx="230.00058" cy="324.09003" fx="230.00058" fy="324.09003" r="191.875"/>
    <linearGradient inkscape:collect="always" xlink:href="#linearGradient4239" id="linearGradient4249" x1="220" y1="522.36218" x2="220" y2="162.36218" gradientUnits="userSpaceOnUse"/>
    <filter inkscape:collect="always" id="filter4295" color-interpolation-filters="sRGB">
      <feGaussianBlur inkscape:collect="always" stdDeviation="3.6000384" id="feGaussianBlur4297"/>
    </filter>
    <filter inkscape:collect="always" id="filter4299" color-interpolation-filters="sRGB">
      <feGaussianBlur inkscape:collect="always" stdDeviation="9.5" id="feGaussianBlur4301"/>
    </filter>
  </defs>
  <sodipodi:namedview id="base" pagecolor="#ffffff" bordercolor="#666666" borderopacity="1.0" inkscape:pageopacity="0.0" inkscape:pageshadow="2" inkscape:zoom="0.98994949" inkscape:cx="290.11042" inkscape:cy="232.0061" inkscape:document-units="px" inkscape:current-layer="layer1" showgrid="false" inkscape:window-width="1366" inkscape:window-height="719" inkscape:window-x="0" inkscape:window-y="0" inkscape:window-maximized="1" fit-margin-top="0" fit-margin-left="0" fit-margin-right="0" fit-margin-bottom="0">
    <inkscape:grid type="xygrid" id="grid2985" empspacing="5" visible="true" enabled="true" snapvisiblegridlinesonly="true" originx="-17.2px" originy="-481.18718px"/>
  </sodipodi:namedview>
  <g inkscape:label="1. réteg" inkscape:groupmode="layer" id="layer1" transform="translate(-17.2,-145.575)">
    <path id="path4265" d="M 127.9375,166.375 C 84.58228,167.46608 50,202.7475 50,246.375 l 0,200 c 0,44.32 35.68,80 80,80 l 200,0 c 44.32,0 80,-35.68 80,-80 l 0,-200 c 0,-44.32 -35.68,-80 -80,-80 l -200,0 c -0.6925,0 -1.37432,-0.0173 -2.0625,0 z m 4.84375,5.03125 194.4375,0 c 43.08386,0 77.78125,34.66614 77.78125,77.75 l 0,194.4375 c 0,43.08386 -34.69739,77.78125 -77.78125,77.78125 l -194.4375,0 C 89.69739,521.375 55,486.67761 55,443.59375 l 0,-194.4375 c 0,-43.08386 34.69739,-77.75 77.78125,-77.75 z" style="opacity:0.8;fill:#000000;fill-opacity:1;stroke:none;filter:url(#filter4295)" inkscape:connector-curvature="0"/>
    <path style="fill:url(#linearGradient4249);fill-opacity:1;stroke:#b4b4b4;stroke-width:2;stroke-linecap:round;stroke-linejoin:round;stroke-miterlimit:4;stroke-opacity:1;stroke-dasharray:none" d="M 127.9375,162.375 C 84.58228,163.46608 50,198.7475 50,242.375 l 0,200 c 0,44.32 35.68,80 80,80 l 200,0 c 44.32,0 80,-35.68 80,-80 l 0,-200 c 0,-44.32 -35.68,-80 -80,-80 l -200,0 c -0.6925,0 -1.37432,-0.0173 -2.0625,0 z m 4.84375,5.03125 194.4375,0 c 43.08386,0 77.78125,34.66614 77.78125,77.75 l 0,194.4375 c 0,43.08386 -34.69739,77.78125 -77.78125,77.78125 l -194.4375,0 C 89.69739,517.375 55,482.67761 55,439.59375 l 0,-194.4375 c 0,-43.08386 34.69739,-77.75 77.78125,-77.75 z" id="rect4218" inkscape:connector-curvature="0"/>
    <path id="path4251" d="m 230,168.375 c -104.93411,0 -190,85.06589 -190,190 0,104.93411 85.06589,190 190,190 104.93411,0 190,-85.06589 190,-190 0,-104.93411 -85.06589,-190 -190,-190 z m 0,80 c 60.75132,0 110,49.24868 110,110 0,60.75132 -49.24868,110 -110,110 -60.75132,0 -110,-49.24868 -110,-110 0,-60.75132 49.24868,-110 110,-110 z" style="opacity:0.6;fill:#000000;fill-opacity:1;stroke:none;filter:url(#filter4299)" inkscape:connector-curvature="0"/>
    <path style="fill:url(#radialGradient3841);fill-opacity:1;stroke:#a0a0a0;stroke-width:3;stroke-miterlimit:4;stroke-opacity:1;stroke-dasharray:none" d="m 230,152.375 c -104.93411,0 -190,85.06589 -190,190 0,104.93411 85.06589,190 190,190 104.93411,0 190,-85.06589 190,-190 0,-104.93411 -85.06589,-190 -190,-190 z m 0,80 c 60.75132,0 110,49.24868 110,110 0,60.75132 -49.24868,110 -110,110 -60.75132,0 -110,-49.24868 -110,-110 0,-60.75132 49.24868,-110 110,-110 z" id="path2987" inkscape:connector-curvature="0"/>
    <path style="fill:url(#radialGradient4019);fill-opacity:1;stroke:#c80000;stroke-width:3;stroke-linecap:round;stroke-linejoin:round;stroke-miterlimit:4;stroke-opacity:1;stroke-dasharray:none;opacity:1" d="m 230,152.375 c -21.00213,0 -41.20612,3.39502 -60.09375,9.6875 L 195.21875,238 c 10.93238,-3.64111 22.62543,-5.625 34.78125,-5.625 12.15582,0 23.84887,1.98389 34.78125,5.625 l 25.3125,-75.9375 C 271.20612,155.77002 251.00213,152.375 230,152.375 z M 49.6875,282.28125 C 43.395022,301.16888 40,321.37287 40,342.375 c 0,21.00213 3.395022,41.20612 9.6875,60.09375 l 75.9375,-25.3125 C 121.98389,366.22387 120,354.53082 120,342.375 c 0,-12.15582 1.98389,-23.84887 5.625,-34.78125 l -75.9375,-25.3125 z m 360.625,0 -75.9375,25.3125 c 3.64111,10.93238 5.625,22.62543 5.625,34.78125 0,12.15582 -1.98389,23.84887 -5.625,34.78125 l 75.9375,25.3125 C 416.60498,383.58112 420,363.37713 420,342.375 c 0,-21.00213 -3.39502,-41.20612 -9.6875,-60.09375 z M 195.21875,446.75 l -25.3125,75.9375 c 18.88763,6.29248 39.09162,9.6875 60.09375,9.6875 21.00213,0 41.20612,-3.39502 60.09375,-9.6875 L 264.78125,446.75 c -10.93238,3.64111 -22.62543,5.625 -34.78125,5.625 -12.15582,0 -23.84887,-1.98389 -34.78125,-5.625 z" id="path3772" inkscape:connector-curvature="0"/>
  </g>
  <metadata>
    <rdf:RDF>
      <cc:Work>
        <dc:format>image/svg+xml</dc:format>
        <dc:type rdf:resource="http://purl.org/dc/dcmitype/StillImage"/>
        <cc:license rdf:resource="http://creativecommons.org/licenses/publicdomain/"/>
        <dc:publisher>
          <cc:Agent rdf:about="http://openclipart.org/">
            <dc:title>Open Clip Art Library</dc:title>
          </cc:Agent>
        </dc:publisher>
        <dc:title>Lifesaver</dc:title>
        <dc:date>2012-10-30T15:11:09</dc:date>
        <dc:description>A red vector lifesaver belt clipart created in Inkscape 0.48.</dc:description>
        <dc:source>http://openclipart.org/detail/172940/lifesaver-by-easy-172940</dc:source>
        <dc:creator>
          <cc:Agent>
            <dc:title>easy</dc:title>
          </cc:Agent>
        </dc:creator>
        <dc:subject>
          <rdf:Bag>
            <rdf:li>belt</rdf:li>
            <rdf:li>clip art</rdf:li>
            <rdf:li>clipart</rdf:li>
            <rdf:li>help</rdf:li>
            <rdf:li>icon</rdf:li>
            <rdf:li>lifesaver</rdf:li>
            <rdf:li>red</rdf:li>
            <rdf:li>rescue</rdf:li>
            <rdf:li>sea</rdf:li>
            <rdf:li>sign</rdf:li>
            <rdf:li>sos</rdf:li>
          </rdf:Bag>
        </dc:subject>
      </cc:Work>
      <cc:License rdf:about="http://creativecommons.org/licenses/publicdomain/">
        <cc:permits rdf:resource="http://creativecommons.org/ns#Reproduction"/>
        <cc:permits rdf:resource="http://creativecommons.org/ns#Distribution"/>
        <cc:permits rdf:resource="http://creativecommons.org/ns#DerivativeWorks"/>
      </cc:License>
    </rdf:RDF>
  </metadata>
</svg>
